<svg width="33" height="34" viewBox="0 0 33 34" fill="none" xmlns="http://www.w3.org/2000/svg">
<g clip-path="url(#clip0_611_29)">
<path d="M19.7996 14.3532L17.7373 17.9256L15.675 21.4981L13.6182 25.0651L11.5559 21.4981L13.6182 17.9256L15.6805 14.3586L12.5519 8.93494H16.671L17.7427 10.7861L19.7996 14.3532ZM8.42729 8.93494H4.30273L9.49362 17.9256L11.5559 14.3586L8.42729 8.93494ZM25.9377 10.7861L24.866 8.93494H20.7468L23.8754 14.3532L21.8132 17.9256L19.7509 21.4981L21.8132 25.0651L23.8754 21.4981L25.9377 17.9256L28 14.3586L25.9377 10.7861Z" fill="#7F1F67"/>
</g>
<rect x="0.57901" y="1.21497" width="31.6973" height="32.1302" rx="8" fill="#E01461" fill-opacity="0.39"/>
<defs>
<clipPath id="clip0_611_29">
<rect width="23.6973" height="16.1302" fill="white" transform="translate(4.30273 8.93494)"/>
</clipPath>
</defs>
</svg>
